<svg xmlns="http://www.w3.org/2000/svg" xmlns:xlink="http://www.w3.org/1999/xlink" width="171" height="24" viewBox="0 0 171 24">
    <defs>
        <path id="a" d="M0 .037h22.913v22.942H0z"/>
        <path id="c" d="M.057.052h10.442v16.96H.057z"/>
    </defs>
    <g fill="none" fill-rule="evenodd">
        <path fill="#DB1500" d="M29.676 22.954L15.196 5.49 21.072.76a2.867 2.867 0 0 1 3.994.397l12.683 15.298-8.073 6.5z"/>
        <g transform="translate(0 .037)">
            <mask id="b" fill="#fff">
                <use xlink:href="#a"/>
            </mask>
            <path fill="#DB1500" d="M14.943 22.979L0 5.515 5.8.695a2.868 2.868 0 0 1 4 .336l13.113 15.326-7.97 6.622z" mask="url(#b)"/>
        </g>
        <path fill="#1E1E1E" d="M45.654 23.992L34.302 10.904 46.7.184l6.876 7.72-4.63 4.005 4.604 5.375z"/>
        <path fill="#DB1500" d="M62.52 3.553h3.222l3.391 12.041 3.78-12.041h2.156l3.925 11.726 3.247-11.726h3.222l-4.967 16.96H77.76l-3.78-11.315-3.755 11.314h-2.932zM86.983 3.553h10.854v3.004h-7.68v3.61h5.96v3.004h-5.96v4.337h7.923v3.004H86.983zM108.612 17.205c.477-.363.715-.98.715-1.853 0-.856-.246-1.466-.739-1.83-.493-.363-1.175-.544-2.047-.544h-3.513v4.772h3.513c.904 0 1.595-.181 2.071-.545zm-5.584-6.99h2.834c.76 0 1.325-.157 1.696-.472.372-.315.558-.803.558-1.466 0-.694-.186-1.195-.558-1.502-.371-.306-.936-.46-1.696-.46h-2.834v3.9zm9.497 5.476c0 1.519-.493 2.701-1.478 3.55-.985.847-2.334 1.272-4.046 1.272h-7.074V3.553h6.396c3.23 0 4.845 1.365 4.845 4.094 0 1.68-.622 2.876-1.865 3.586 2.148.695 3.222 2.18 3.222 4.458z"/>
        <path fill="#000" d="M118.36 11.548l6.275-7.995h3.634l-6.323 7.995 6.323 8.965h-3.634l-6.275-8.965zm-3.343 8.964h3.1V3.552h-3.1v16.96zM135.586 11.62c2.277 0 3.416-.92 3.416-2.761 0-.888-.258-1.563-.775-2.023-.517-.46-1.357-.69-2.52-.69h-2.398v5.475h2.277zm-5.379-8.067h6.203c1.809 0 3.234.432 4.276 1.296 1.042.864 1.563 2.144 1.563 3.84 0 1.18-.25 2.144-.751 2.895-.501.752-1.212 1.353-2.132 1.805l3.828 7.123h-3.465l-3.27-6.299h-3.15v6.3h-3.102V3.552zM153.2 13.777l-2.108-6.057-2.132 6.057h4.24zm.969 2.714h-6.178l-1.405 4.021h-3.005l6.033-16.959h2.932l6.032 16.96h-3.004l-1.405-4.022z"/>
        <g transform="translate(160.46 3.501)">
            <mask id="d" fill="#fff">
                <use xlink:href="#c"/>
            </mask>
            <path fill="#000" d="M.057.052h10.442v3.004H3.158v3.61h5.67V9.67h-5.67v7.341H.057z" mask="url(#d)"/>
        </g>
    </g>
</svg>
